<?xml version="1.0" encoding="UTF-8" standalone="no"?>
<svg width="100px" height="80px" viewBox="0 0 100 80" version="1.1" xmlns="http://www.w3.org/2000/svg" xmlns:xlink="http://www.w3.org/1999/xlink">
    <!-- Generator: Sketch 3.8.3 (29802) - http://www.bohemiancoding.com/sketch -->
    <title>Icon_Desktop</title>
    <desc>Created with Sketch.</desc>
    <defs></defs>
    <g id="Downloads" stroke="none" stroke-width="1" fill="none" fill-rule="evenodd">
        <g id="Landing-Screen" transform="translate(-235.000000, -318.000000)">
            <g id="download-option" transform="translate(123.000000, 318.000000)">
                <g id="Icon_Desktop" transform="translate(112.000000, 0.000000)">
                    <g id="Group">
                        <path d="M96.8838901,33.1218712 L96.8838901,61.6235661 C96.8838901,62.6540746 96.0502309,63.4904136 95.0266751,63.4904136 L4.95457557,63.4904136 C3.9310198,63.4904136 3.09736056,62.6540746 3.09736056,61.6235661 L3.09736056,20.0946169 L3.09736056,19.2273627 L3.09736056,5.35970169 C3.09736056,4.32892203 3.9310198,3.49258305 4.95457557,3.49258305 L95.0266751,3.49258305 C96.0502309,3.49258305 96.8838901,4.32892203 96.8838901,5.35970169 L96.8838901,30.8780746 L96.8838901,33.1218712 Z M95.1815553,0.271159322 L4.58016964,0.271159322 C2.05602725,0.271159322 2.69356781e-05,2.34139661 2.69356781e-05,4.88241356 L2.69356781e-05,19.2273627 L2.69356781e-05,20.0946169 L2.69356781e-05,62.1005831 C2.69356781e-05,64.6416 2.05602725,66.7118373 4.58016964,66.7118373 L95.1815553,66.7118373 C97.7056977,66.7118373 99.7590044,64.6416 99.7590044,62.1005831 L99.7590044,33.1218712 L99.7590044,30.8780746 L99.7590044,4.88241356 C99.7590044,2.34139661 97.7056977,0.271159322 95.1815553,0.271159322 L95.1815553,0.271159322 Z" id="Fill-1" fill="#BFBFBF"></path>
                        <polygon id="Fill-4" fill="#D8D8D8" points="94.6376701 5.75124068 5.34374225 5.75124068 5.34374225 10.5227661 5.30333873 55.9934102 26.6722203 55.9934102 73.1812476 55.993139 94.6131586 55.9934102 94.6131586 33.1218169"></polygon>
                        <path d="M69.6886598,76.3647186 L61.7477526,76.3647186 L60.5027855,70.0677695 C60.3858847,69.4760407 59.7976095,68.9917017 59.1961358,68.9917017 L56.7843151,68.9917017 L42.9741236,68.9917017 L40.5628417,68.9917017 C39.9610987,68.9917017 39.3730928,69.4760407 39.256192,70.0677695 L38.0109556,76.3647186 L30.070587,76.3647186 C29.6714003,76.3647186 29.3452092,76.6933966 29.3452092,77.0947525 L29.3452092,79.2384814 C29.3452092,79.6398373 29.6714003,79.9685153 30.070587,79.9685153 L69.6886598,79.9685153 C70.0873079,79.9685153 70.4137683,79.6398373 70.4137683,79.2384814 L70.4137683,77.0947525 C70.4137683,76.6933966 70.0873079,76.3647186 69.6886598,76.3647186" id="Fill-6" fill="#BFBFBF"></path>
                    </g>
                </g>
            </g>
        </g>
    </g>
</svg>