<?xml version="1.0" encoding="UTF-8" standalone="no"?>
<svg width="100px" height="80px" viewBox="0 0 100 80" version="1.1" xmlns="http://www.w3.org/2000/svg" xmlns:xlink="http://www.w3.org/1999/xlink">
    <!-- Generator: Sketch 3.8.3 (29802) - http://www.bohemiancoding.com/sketch -->
    <title>Icon_Desktop</title>
    <desc>Created with Sketch.</desc>
    <defs></defs>
    <g id="Downloads" stroke="none" stroke-width="1" fill="none" fill-rule="evenodd">
        <g id="Joining-Screen" transform="translate(-573.000000, -394.000000)">
            <g id="download-option" transform="translate(121.000000, 319.000000)">
                <g id="Icon_Desktop" transform="translate(452.000000, 75.000000)">
                    <g id="Group">
                        <path d="M96.8838901,33.1218712 L96.8838901,61.6235661 C96.8838901,62.6540746 96.0502309,63.4904136 95.0266751,63.4904136 L4.95457557,63.4904136 C3.9310198,63.4904136 3.09736056,62.6540746 3.09736056,61.6235661 L3.09736056,20.0946169 L3.09736056,19.2273627 L3.09736056,5.35970169 C3.09736056,4.32892203 3.9310198,3.49258305 4.95457557,3.49258305 L95.0266751,3.49258305 C96.0502309,3.49258305 96.8838901,4.32892203 96.8838901,5.35970169 L96.8838901,30.8780746 L96.8838901,33.1218712 Z M95.1815553,0.271159322 L4.58016964,0.271159322 C2.05602725,0.271159322 2.69356781e-05,2.34139661 2.69356781e-05,4.88241356 L2.69356781e-05,19.2273627 L2.69356781e-05,20.0946169 L2.69356781e-05,62.1005831 C2.69356781e-05,64.6416 2.05602725,66.7118373 4.58016964,66.7118373 L95.1815553,66.7118373 C97.7056977,66.7118373 99.7590044,64.6416 99.7590044,62.1005831 L99.7590044,33.1218712 L99.7590044,30.8780746 L99.7590044,4.88241356 C99.7590044,2.34139661 97.7056977,0.271159322 95.1815553,0.271159322 L95.1815553,0.271159322 Z" id="Fill-1" fill="#BFBFBF"></path>
                        <polygon id="Fill-4" fill="#D8D8D8" points="94.6376701 5.75124068 5.34374225 5.75124068 5.34374225 10.5227661 5.30333873 55.9934102 26.6722203 55.9934102 73.1812476 55.993139 94.6131586 55.9934102 94.6131586 33.1218169"></polygon>
                        <path d="M69.6886598,76.3647186 L61.7477526,76.3647186 L60.5027855,70.0677695 C60.3858847,69.4760407 59.7976095,68.9917017 59.1961358,68.9917017 L56.7843151,68.9917017 L42.9741236,68.9917017 L40.5628417,68.9917017 C39.9610987,68.9917017 39.3730928,69.4760407 39.256192,70.0677695 L38.0109556,76.3647186 L30.070587,76.3647186 C29.6714003,76.3647186 29.3452092,76.6933966 29.3452092,77.0947525 L29.3452092,79.2384814 C29.3452092,79.6398373 29.6714003,79.9685153 30.070587,79.9685153 L69.6886598,79.9685153 C70.0873079,79.9685153 70.4137683,79.6398373 70.4137683,79.2384814 L70.4137683,77.0947525 C70.4137683,76.6933966 70.0873079,76.3647186 69.6886598,76.3647186" id="Fill-6" fill="#BFBFBF"></path>
                        <g id="Group-3" transform="translate(34.751773, 15.714286)" fill="#FFFFFF">
                            <path d="M29.452694,28.3508029 C29.452694,29.176628 28.7769556,29.8461195 27.9434249,29.8461195 L1.50926908,29.8461195 C0.675738372,29.8461195 0,29.176628 0,28.3508029 L0,19.3898305 C0,18.5642284 0.675738372,17.8947368 1.50926908,17.8947368 C2.3425747,17.8947368 3.01831307,18.5642284 3.01831307,19.3898305 L3.01831307,26.8557092 L26.434606,26.8557092 L26.434606,19.3898305 C26.434606,18.5642284 27.1098942,17.8947368 27.9434249,17.8947368 C28.7769556,17.8947368 29.452694,18.5642284 29.452694,19.3898305 L29.452694,28.3508029 Z" id="Path"></path>
                            <path d="M5.93706867,12.2656111 C6.08090505,11.970339 6.38253377,11.7830062 6.71342498,11.7830062 L9.77090477,11.7830062 L9.77090477,0.854371097 C9.77090477,0.382471008 10.1569445,0 10.6332478,0 L19.1326499,0 C19.6091783,0 19.9949929,0.382471008 19.9949929,0.854371097 L19.9949929,11.7830062 L22.8593403,11.7830062 C23.1900064,11.7830062 23.4918602,11.970339 23.6356966,12.2656111 C23.7797581,12.5606601 23.7408164,12.911463 23.5350786,13.1681534 L15.4622335,23.2553524 C15.2985887,23.4596343 15.0498576,23.5789474 14.7864952,23.5789474 C14.5231328,23.5789474 14.2741765,23.4596343 14.1107568,23.2553524 L6.03768661,13.1681534 C5.83217391,12.911463 5.79300719,12.5606601 5.93706867,12.2656111 L5.93706867,12.2656111 Z" id="Path"></path>
                        </g>
                    </g>
                </g>
            </g>
        </g>
    </g>
</svg>