<?xml version="1.0" encoding="UTF-8" standalone="no"?>
<svg width="80px" height="80px" viewBox="0 0 80 80" version="1.1" xmlns="http://www.w3.org/2000/svg" xmlns:xlink="http://www.w3.org/1999/xlink">
    <!-- Generator: Sketch 3.8.3 (29802) - http://www.bohemiancoding.com/sketch -->
    <title>Icon_Web</title>
    <desc>Created with Sketch.</desc>
    <defs>
        <polygon id="path-1" points="39.2510579 79.2042822 78.5021033 79.2042822 78.5021033 0 39.2510579 0 1.25605375e-05 0 1.25605375e-05 79.2042822 39.2510579 79.2042822"></polygon>
    </defs>
    <g id="Downloads" stroke="none" stroke-width="1" fill="none" fill-rule="evenodd">
        <g id="Landing-Screen" transform="translate(-700.000000, -318.000000)">
            <g id="browser-option" transform="translate(627.000000, 318.000000)">
                <g id="Icon_Web" transform="translate(73.000000, 0.000000)">
                    <g id="Group-3-Copy">
                        <mask id="mask-2" fill="white">
                            <use xlink:href="#path-1"></use>
                        </mask>
                        <g id="Clip-2"></g>
                    </g>
                    <g id="Group-2" transform="translate(0.578774, 0.000000)">
                        <path d="M9.47693811,60.1952545 L21.7611438,60.1952545 C22.537385,62.7006444 23.4618406,65.0476256 24.524462,67.1931112 C26.0555916,70.2814446 27.8077865,72.8172489 29.7195003,74.7485661 C21.3893519,72.4459392 14.2511984,67.2019821 9.47693811,60.1952545 L9.47693811,60.1952545 Z M18.8571475,41.1862268 C18.9664242,46.7622082 19.6597659,52.1379613 20.878138,57.0270832 L7.54512744,57.0270832 C4.97272936,52.2836972 3.41773481,46.902875 3.17406039,41.1862268 L18.8571475,41.1862268 Z M7.54512744,22.177199 L20.878138,22.177199 C19.6597659,27.066321 18.9664242,32.442074 18.8571475,38.0180555 L3.17406039,38.0180555 C3.41773481,32.3014072 4.97272936,26.9205851 7.54512744,22.177199 L7.54512744,22.177199 Z M29.7195003,4.4557161 C27.8077865,6.38703332 26.0555916,8.92283762 24.524462,12.011171 C23.4618406,14.1566566 22.537385,16.5036379 21.7611438,19.0090277 L9.47693811,19.0090277 C14.2511984,12.0023001 21.3893519,6.75834299 29.7195003,4.4557161 L29.7195003,4.4557161 Z M69.0264464,19.0090277 L56.7409847,19.0090277 C55.9647435,16.5036379 55.0402879,14.1566566 53.9776664,12.011171 C52.4465369,8.92283762 50.6943419,6.38703332 48.7826281,4.4557161 C57.1140326,6.75834299 64.2521861,12.0035674 69.0264464,19.0090277 L69.0264464,19.0090277 Z M59.6449809,38.0180555 C59.5357043,32.442074 58.8423626,27.066321 57.6252465,22.177199 L70.9582571,22.177199 C73.5293991,26.9205851 75.0843936,32.3014072 75.3280681,38.0180555 L59.6449809,38.0180555 Z M40.8215082,38.0180555 L40.8215082,22.177199 L54.3846278,22.177199 C55.6607784,27.0130957 56.3892896,32.4002541 56.5048466,38.0180555 L40.8215082,38.0180555 Z M37.6813739,3.32417204 L37.6813739,19.0090277 L25.0582849,19.0090277 C25.7177131,17.023218 26.4776256,15.1539969 27.3329982,13.4279772 C30.2205402,7.60120328 33.8467674,4.08073135 37.6813739,3.32417204 L37.6813739,3.32417204 Z M40.8215082,3.32391859 C40.8216338,3.32404532 40.8216338,3.32404532 40.8217594,3.32404532 C44.6564915,4.08187189 48.2827187,7.60234383 51.1691302,13.4279772 C52.0245028,15.1539969 52.7844154,17.023218 53.4438436,19.0090277 L40.8215082,19.0090277 L40.8215082,3.32391859 Z M24.1175006,22.177199 L37.6813739,22.177199 L37.6813739,38.0180555 L21.9972819,38.0180555 C22.1128388,32.4002541 22.84135,27.0130957 24.1175006,22.177199 L24.1175006,22.177199 Z M37.6813739,57.0270832 L24.1175006,57.0270832 C22.84135,52.1911866 22.1128388,46.8040281 21.9972819,41.1862268 L37.6813739,41.1862268 L37.6813739,57.0270832 Z M37.6813739,75.8802369 C33.8467674,75.1235509 30.2205402,71.6032057 27.3329982,65.776305 C26.4776256,64.0502853 25.7177131,62.1810643 25.0582849,60.1952545 L37.6813739,60.1952545 L37.6813739,75.8802369 Z M51.7871087,71.0126586 L50.4004253,67.2412674 C47.6509237,72.1924855 44.3236373,75.1883083 40.8217594,75.8802369 C40.8216338,75.8802369 40.8215082,60.1952545 40.8215082,60.1952545 L47.8104425,60.1952545 L46.6460807,57.0270832 L40.8215082,57.0270832 L40.8215082,41.1862268 L56.5048466,41.1862268 C56.4646528,43.1327512 56.351608,45.0513957 56.1669681,46.9294877 L59.2041061,48.0662275 C59.4502926,45.8231623 59.599763,43.5218026 59.6449809,41.1862268 L75.3280681,41.1862268 C75.1484524,45.3948255 74.2579103,49.4222048 72.7745108,53.1454397 L75.7387976,54.2542997 C77.5537953,49.654115 78.5021159,44.7028969 78.5021159,39.6021411 C78.5021159,29.0242508 74.4199412,19.0787275 67.006712,11.5993087 C59.5922267,4.11862268 49.7359729,0 39.2504362,0 C28.7661555,0 18.9099018,4.11862268 11.4954165,11.5993087 C4.08218725,19.0787275 1.25605375e-05,29.0242508 1.25605375e-05,39.6021411 C1.25605375e-05,50.1800314 4.08218725,60.1255547 11.4954165,67.6049735 C18.9099018,75.0843923 28.7661555,79.2042822 39.2504362,79.2042822 C44.3060525,79.2042822 49.2147106,78.2462272 53.7741857,76.4162915 L52.6751387,73.4255378 C51.4115486,73.9387816 50.111533,74.3810583 48.7826281,74.7485661 C49.8364572,73.6853279 50.8425563,72.4358011 51.7871087,71.0126586 Z" id="Fill-1" fill="#BFBFBF"></path>
                        <g id="Group-6" transform="translate(45.469146, 45.875120)" fill="#878787">
                            <polygon id="Fill-4" points="33.0329827 27.4199015 24.3134576 18.6225235 22.9154697 17.2120537 26.9348417 14.9537812 32.1273679 12.0352618 29.160569 10.9251345 26.1799534 9.80993825 13.3694612 5.01586146 10.3612125 3.88925975 0.0188659273 0.0190217004 4.1123451 11.1519756 5.27670693 14.3201469 6.60561179 17.9369312 8.12543683 22.0694939 9.7231372 26.4136903 10.8284645 29.4209185 11.9287676 32.4142068 14.8214594 27.1753187 17.0597472 23.1200595 18.457735 24.5305293 27.1785162 33.3291746"></polygon>
                        </g>
                    </g>
                </g>
            </g>
        </g>
    </g>
</svg>